#!OML:ASF H:\MichaelJackson\Top Level 1\Subject 1\Session 1\male.ASF
:FULLY-SPECIFIED
:DEGREES
846
root 26.3171 16.6477 0.16401 -172.217 -3.30272 -181.959
lowerback 4.12246 -2.3001 -1.76199
upperback 0.824233 -3.16168 1.74987
thorax -1.2676 -1.59308 2.94365
lowerneck -9.02721 -0.77704 1.33797
upperneck 15.302 -0.663148 -1.50293
head 6.11095 -0.215982 -0.733347
rclavicle -5.96354e-015 4.65156e-014
rhumerus -200.398 153.481 -264.49
rradius 69.1379
rwrist 37.7165
rhand -43.5662 -31.8958
rfingers 7.12502
rthumb -16.4036 -421.222
lclavicle -5.96354e-015 4.65156e-014
lhumerus -42.2812 -29.3789 92.0498
lradius 83.3086
lwrist 9.37884
lhand -11.0976 33.3222
lfingers 7.12502
lthumb 14.9264 62.7644
rfemur -48.9679 -6.60905 18.8325
rtibia 70.2084
rfoot 11.1647 10.0681
rtoes -1.34901
lfemur -28.6466 8.94278 -25.1354
ltibia 39.17
lfoot -21.3835 -1.71074
ltoes 26.8755
847
root 26.3253 16.6584 0.24973 -172.209 -3.24401 -181.835
lowerback 4.02514 -2.27431 -1.72886
upperback 0.773229 -3.12256 1.77026
thorax -1.2687 -1.57233 2.9411
lowerneck -9.05366 -0.773053 1.31415
upperneck 15.3673 -0.660947 -1.4378
head 6.1366 -0.209795 -0.708864
rclavicle -3.6477e-014 -1.59028e-015
rhumerus -201.631 153.891 -265.07
rradius 68.971
rwrist 37.7503
rhand -44.0425 -32.1635
rfingers 7.12502
rthumb -16.8621 -421.451
lclavicle -3.6477e-014 -1.59028e-015
lhumerus -41.3598 -29.3857 91.3011
lradius 85.2183
lwrist 8.84532
lhand -11.8649 33.1209
lfingers 7.12502
lthumb 14.1872 62.6164
rfemur -48.8079 -6.52461 18.8654
rtibia 71.2158
rfoot 12.12 10.2991
rtoes -0.564505
lfemur -28.8785 8.93486 -25.0269
ltibia 38.9486
lfoot -21.2077 -1.73694
ltoes 27.068
848
root 26.3342 16.6688 0.334621 -172.18 -3.16449 -181.716
lowerback 3.9017 -2.24549 -1.70043
upperback 0.7153 -3.07906 1.78896
thorax -1.2624 -1.54927 2.93827
lowerneck -9.08327 -0.759275 1.28277
upperneck 15.435 -0.64355 -1.37637
head 6.16381 -0.196911 -0.683102
rclavicle -2.88238e-015 -9.14409e-015
rhumerus -202.832 154.302 -265.641
rradius 68.7242
rwrist 37.7447
rhand -44.4305 -32.4217
rfingers 7.12502
rthumb -17.2356 -421.677
lclavicle -2.88238e-015 -9.14409e-015
lhumerus -40.4484 -29.3677 90.5325
lradius 87.1858
lwrist 8.29972
lhand -12.7663 32.8727
lfingers 7.12502
lthumb 13.3185 62.4271
rfemur -48.6191 -6.42225 18.8925
rtibia 72.1473
rfoot 13.0513 10.4366
rtoes 0.203081
lfemur -29.1279 8.91256 -24.9195
ltibia 38.725
lfoot -21.0246 -1.73614
ltoes 27.2106
849
root 26.3436 16.679 0.418797 -172.135 -3.08828 -181.599
lowerback 3.762 -2.22251 -1.66915
upperback 0.651587 -3.043 1.80751
thorax -1.25259 -1.52989 2.93351
lowerneck -9.10696 -0.737982 1.26063
upperneck 15.4929 -0.614001 -1.33775
head 6.18694 -0.179524 -0.665059
rclavicle 3.21037e-014 2.38542e-015
rhumerus -204.005 154.715 -266.205
rradius 68.4106
rwrist 37.6706
rhand -44.7285 -32.6444
rfingers 7.12502
rthumb -17.5223 -421.875
lclavicle 3.21037e-014 2.38542e-015
lhumerus -39.5447 -29.3309 89.7445
lradius 89.2028
lwrist 7.7426
lhand -13.6235 32.6587
lfingers 7.12502
lthumb 12.4922 62.2653
rfemur -48.3921 -6.32529 18.9169
rtibia 72.9977
rfoot 13.9441 10.4796
rtoes 0.950512
lfemur -29.3907 8.85539 -24.8094
ltibia 38.4993
lfoot -20.8233 -1.71959
ltoes 27.3554
850
root 26.3536 16.6893 0.502426 -172.093 -3.03407 -181.464
lowerback 3.63175 -2.2074 -1.6107
upperback 0.583986 -3.01686 1.83057
thorax -1.25256 -1.51555 2.91923
lowerneck -9.12996 -0.710299 1.24249
upperneck 15.5489 -0.573989 -1.31382
head 6.20937 -0.158002 -0.651466
rclavicle 3.10104e-014 0
rhumerus -205.167 155.149 -266.765
rradius 68.0494
rwrist 37.5221
rhand -44.9417 -32.8217
rfingers 7.12502
rthumb -17.7275 -422.034
lclavicle 3.10104e-014 0
lhumerus -38.6507 -29.2929 88.9427
lradius 91.2489
lwrist 7.15304
lhand -14.5387 32.3965
lfingers 7.12502
lthumb 11.6097 62.0549
rfemur -48.1051 -6.24318 18.9648
rtibia 73.7574
rfoot 14.7724 10.4477
rtoes 1.58875
lfemur -29.6481 8.74948 -24.6671
ltibia 38.2688
lfoot -20.5868 -1.69024
ltoes 27.5039
851
root 26.3641 16.6996 0.585714 -172.054 -3.00273 -181.311
lowerback 3.51305 -2.19744 -1.52585
upperback 0.514823 -2.99723 1.85911
thorax -1.26121 -1.50467 2.89672
lowerneck -9.1473 -0.681191 1.23934
upperneck 15.5898 -0.531251 -1.31384
head 6.22594 -0.136492 -0.647665
rclavicle 5.02925e-014 -1.82882e-014
rhumerus -206.327 155.611 -267.312
rradius 67.6633
rwrist 37.2985
rhand -45.0794 -32.9438
rfingers 7.12502
rthumb -17.86 -422.144
lclavicle 5.02925e-014 -1.82882e-014
lhumerus -37.7486 -29.2552 88.1256
lradius 93.309
lwrist 6.52589
lhand -15.4536 32.1026
lfingers 7.12502
lthumb 10.7272 61.8088
rfemur -47.7603 -6.17765 19.0373
rtibia 74.4223
rfoot 15.5148 10.3612
rtoes 2.09365
lfemur -29.9031 8.59676 -24.4923
ltibia 38.0337
lfoot -20.2927 -1.65218
ltoes 27.6902
852
root 26.3748 16.7099 0.668352 -172.047 -3.01241 -181.152
lowerback 3.43196 -2.19269 -1.42005
upperback 0.455353 -2.98498 1.88744
thorax -1.28152 -1.49787 2.86407
lowerneck -9.1717 -0.657045 1.23959
upperneck 15.6205 -0.496186 -1.3189
head 6.24036 -0.11935 -0.646649
rclavicle 7.25564e-015 1.59028e-015
rhumerus -207.491 156.128 -267.834
rradius 67.2732
rwrist 37.0251
rhand -45.1495 -33.0026
rfingers 7.12502
rthumb -17.9275 -422.196
lclavicle 7.25564e-015 1.59028e-015
lhumerus -36.8191 -29.2289 87.2922
lradius 95.3707
lwrist 5.85185
lhand -16.2674 31.802
lfingers 7.12502
lthumb 9.94217 61.5472
rfemur -47.3193 -6.14918 19.1193
rtibia 74.9892
rfoot 16.1436 10.2393
rtoes 2.41978
lfemur -30.1234 8.39272 -24.2933
ltibia 37.7922
lfoot -19.9134 -1.61711
ltoes 27.9243
